<svg width="820" height="620" viewBox="0 0 820 620" fill="none" xmlns="http://www.w3.org/2000/svg" font-family="'Courier New', Courier, monospace">
  <defs>
    <radialGradient id="bg" cx="50%" cy="30%" r="85%">
      <stop offset="0%" stop-color="#16130e"/>
      <stop offset="60%" stop-color="#0e0c09"/>
      <stop offset="100%" stop-color="#060505"/>
    </radialGradient>
    <linearGradient id="bone" x1="0" y1="0" x2="0" y2="1">
      <stop offset="0%" stop-color="#e8e2d2"/>
      <stop offset="50%" stop-color="#c8c0ac"/>
      <stop offset="100%" stop-color="#8a8272"/>
    </linearGradient>
    <linearGradient id="hpFill" x1="0" y1="0" x2="1" y2="0">
      <stop offset="0%" stop-color="#5a0e0a"/>
      <stop offset="60%" stop-color="#a01812"/>
      <stop offset="100%" stop-color="#d43a2a"/>
    </linearGradient>
    <linearGradient id="sheen" x1="0" y1="0" x2="1" y2="0">
      <stop offset="0%" stop-color="#ffffff" stop-opacity="0"/>
      <stop offset="50%" stop-color="#ffffff" stop-opacity="0.55"/>
      <stop offset="100%" stop-color="#ffffff" stop-opacity="0"/>
    </linearGradient>
    <filter id="glow" x="-40%" y="-40%" width="180%" height="180%">
      <feGaussianBlur stdDeviation="2" result="b"/>
      <feMerge><feMergeNode in="b"/><feMergeNode in="SourceGraphic"/></feMerge>
    </filter>
    <filter id="grunge">
      <feTurbulence type="fractalNoise" baseFrequency="0.9" numOctaves="2" stitchTiles="stitch"/>
      <feColorMatrix type="matrix" values="0 0 0 0 0  0 0 0 0 0  0 0 0 0 0  0 0 0 0.05 0"/>
    </filter>
    <clipPath id="clipPills"><rect x="220" y="524" width="288" height="16"/></clipPath>
  </defs>

  <!-- panel background -->
  <rect x="4" y="4" width="812" height="612" rx="4" fill="url(#bg)"/>
  <rect x="4" y="4" width="812" height="612" rx="4" filter="url(#grunge)"/>

  <!-- frame -->
  <rect x="14" y="14" width="792" height="592" rx="2" fill="none" stroke="url(#bone)" stroke-width="2" opacity="0.85"/>
  <rect x="22" y="22" width="776" height="576" rx="2" fill="none" stroke="#a01812" stroke-width="1" opacity="0.5"/>
  <g fill="#8a8272">
    <circle cx="26" cy="26" r="2.5"/><circle cx="794" cy="26" r="2.5"/>
    <circle cx="26" cy="594" r="2.5"/><circle cx="794" cy="594" r="2.5"/>
  </g>

  <!-- claw marks, top left this time -->
  <g opacity="0.55">
    <path d="M84 26 L132 122 L125 124 L76 32 Z" fill="#7a1410"/>
    <path d="M112 22 L160 118 L153 120 L104 28 Z" fill="#a01812"/>
    <path d="M140 26 L184 112 L177 115 L132 31 Z" fill="#7a1410"/>
  </g>

  <!-- title -->
  <text x="410" y="64" text-anchor="middle" fill="url(#bone)" font-size="28" font-weight="bold" letter-spacing="10" filter="url(#glow)">LOADOUT
    <animate attributeName="opacity" values="1;1;0.4;1;0.85;1;1" keyTimes="0;0.55;0.58;0.62;0.65;0.68;1" dur="5s" repeatCount="indefinite"/>
  </text>
  <rect x="120" y="80" width="580" height="2" fill="#a01812" opacity="0.7"/>

  <!-- center divider -->
  <line x1="410" y1="104" x2="410" y2="330" stroke="#332d24" stroke-width="1"/>

  <!-- ============ LEFT: WEAPONS ============ -->
  <text x="56" y="122" fill="#E8A33D" font-size="13" letter-spacing="4">WEAPONS</text>
  <!-- slot 1 -->
  <rect x="56" y="142" width="30" height="30" fill="#1c1813" stroke="#8a8272" stroke-width="1.4"/>
  <text x="71" y="163" text-anchor="middle" fill="#E8A33D" font-size="15" font-weight="bold">1</text>
  <text x="100" y="156" fill="#e8e2d2" font-size="15">Godot Auto-Shotgun <tspan fill="#E8A33D">+10</tspan></text>
  <text x="100" y="172" fill="#6e6858" font-size="11" font-style="italic">custom mods, kicks like hell</text>
  <!-- slot 2 -->
  <rect x="56" y="196" width="30" height="30" fill="#1c1813" stroke="#8a8272" stroke-width="1.4"/>
  <text x="71" y="217" text-anchor="middle" fill="#E8A33D" font-size="15" font-weight="bold">2</text>
  <text x="100" y="210" fill="#e8e2d2" font-size="15">Unity Magnum <tspan fill="#E8A33D">+7</tspan></text>
  <text x="100" y="226" fill="#6e6858" font-size="11" font-style="italic">one shot, one build</text>
  <!-- slot 3 -->
  <rect x="56" y="250" width="30" height="30" fill="#1c1813" stroke="#8a8272" stroke-width="1.4"/>
  <text x="71" y="271" text-anchor="middle" fill="#E8A33D" font-size="15" font-weight="bold">3</text>
  <text x="100" y="264" fill="#e8e2d2" font-size="15">Go Pipe Bomb</text>
  <text x="100" y="280" fill="#6e6858" font-size="11" font-style="italic">bugs chase the beeping</text>
  <!-- blinking pipe bomb light -->
  <circle cx="79" cy="253" r="2.5" fill="#d43a2a">
    <animate attributeName="opacity" values="1;0.1;1" dur="0.8s" repeatCount="indefinite"/>
  </circle>

  <!-- ============ RIGHT: SUPPORT ============ -->
  <text x="452" y="122" fill="#E8A33D" font-size="13" letter-spacing="4">SUPPORT</text>
  <!-- slot 4 -->
  <rect x="452" y="142" width="30" height="30" fill="#1c1813" stroke="#8a8272" stroke-width="1.4"/>
  <text x="467" y="163" text-anchor="middle" fill="#E8A33D" font-size="15" font-weight="bold">4</text>
  <text x="496" y="156" fill="#e8e2d2" font-size="15">Git Medkit</text>
  <text x="496" y="172" fill="#6e6858" font-size="11" font-style="italic">undo death once</text>
  <!-- red cross on medkit slot -->
  <g fill="#a01812"><rect x="461" y="149" width="12" height="4"/><rect x="465" y="145" width="4" height="12"/></g>
  <!-- slot 5 -->
  <rect x="452" y="196" width="30" height="30" fill="#1c1813" stroke="#8a8272" stroke-width="1.4"/>
  <text x="467" y="217" text-anchor="middle" fill="#E8A33D" font-size="15" font-weight="bold">5</text>
  <text x="496" y="210" fill="#e8e2d2" font-size="15">Coffee Pills</text>
  <text x="496" y="226" fill="#6e6858" font-size="11" font-style="italic">"Grabbin' peelz!"</text>
  <!-- slot F -->
  <rect x="452" y="250" width="30" height="30" fill="#1c1813" stroke="#8a8272" stroke-width="1.4"/>
  <text x="467" y="271" text-anchor="middle" fill="#E8A33D" font-size="14" font-weight="bold">F</text>
  <text x="496" y="264" fill="#e8e2d2" font-size="15">Figma Flashlight</text>
  <text x="496" y="280" fill="#6e6858" font-size="11" font-style="italic">illuminates designs</text>
  <!-- slot D -->
  <rect x="452" y="304" width="30" height="30" fill="#1c1813" stroke="#8a8272" stroke-width="1.4"/>
  <text x="467" y="325" text-anchor="middle" fill="#E8A33D" font-size="14" font-weight="bold">D</text>
  <text x="496" y="318" fill="#e8e2d2" font-size="15">Claude Defib</text>
  <text x="496" y="334" fill="#6e6858" font-size="11" font-style="italic">revives dead code</text>

  <!-- ============ SURVIVOR GEAR ============ -->
  <line x1="56" y1="366" x2="764" y2="366" stroke="#4a4238" stroke-width="1"/>
  <text x="56" y="392" fill="#E8A33D" font-size="13" letter-spacing="4">SURVIVOR GEAR</text>
  <g font-size="12" fill="#8a8272" letter-spacing="1">
    <text x="56" y="424">Head</text>
    <text x="56" y="454">Body</text>
    <text x="452" y="424">Arms</text>
    <text x="452" y="454">Legs</text>
  </g>
  <g font-size="15" fill="#e8e2d2">
    <text x="130" y="424">Headphones of Focus</text>
    <text x="130" y="454">Hoodie of the Immune Dev</text>
    <text x="520" y="424">Mechanical Keyboard Gauntlets</text>
    <text x="520" y="454">Greaves of Sitting Too Long</text>
  </g>

  <!-- ============ PILLS METER ============ -->
  <line x1="56" y1="482" x2="764" y2="482" stroke="#4a4238" stroke-width="1"/>
  <text x="56" y="514" fill="#d8d2c4" font-size="14" letter-spacing="1">PILLS BOTTLE</text>
  <text x="188" y="514" fill="#6e6858" font-size="11" font-style="italic">(espresso)</text>
  <rect x="220" y="524" width="360" height="16" fill="#1c1813" stroke="#4a4238" stroke-width="1"/>
  <rect x="220" y="524" width="288" height="16" fill="url(#hpFill)"/>
  <g stroke="#0e0c09" stroke-width="1" opacity="0.8">
    <line x1="256" y1="524" x2="256" y2="540"/><line x1="292" y1="524" x2="292" y2="540"/><line x1="328" y1="524" x2="328" y2="540"/>
    <line x1="364" y1="524" x2="364" y2="540"/><line x1="400" y1="524" x2="400" y2="540"/><line x1="436" y1="524" x2="436" y2="540"/>
    <line x1="472" y1="524" x2="472" y2="540"/><line x1="508" y1="524" x2="508" y2="540"/><line x1="544" y1="524" x2="544" y2="540"/>
  </g>
  <g clip-path="url(#clipPills)"><rect x="-90" y="524" width="90" height="16" fill="url(#sheen)"><animate attributeName="x" from="130" to="520" dur="2.5s" repeatCount="indefinite"/></rect></g>
  <text x="596" y="537" fill="#c8c0ac" font-size="12" letter-spacing="1">8 / 10</text>

  <!-- footer -->
  <line x1="120" y1="566" x2="700" y2="566" stroke="#4a4238" stroke-width="1"/>
  <text x="410" y="592" text-anchor="middle" fill="#8a8272" font-size="12" font-style="italic" letter-spacing="1">"Gear check complete. Safe house door opens in 3... 2... 1..."</text>
</svg>
