<svg width="820" height="560" viewBox="0 0 820 560" fill="none" xmlns="http://www.w3.org/2000/svg" font-family="'Courier New', Courier, monospace">
  <defs>
    <radialGradient id="bg" cx="50%" cy="30%" r="85%">
      <stop offset="0%" stop-color="#16130e"/>
      <stop offset="60%" stop-color="#0e0c09"/>
      <stop offset="100%" stop-color="#060505"/>
    </radialGradient>
    <linearGradient id="bone" x1="0" y1="0" x2="0" y2="1">
      <stop offset="0%" stop-color="#e8e2d2"/>
      <stop offset="50%" stop-color="#c8c0ac"/>
      <stop offset="100%" stop-color="#8a8272"/>
    </linearGradient>
    <linearGradient id="hpFill" x1="0" y1="0" x2="1" y2="0">
      <stop offset="0%" stop-color="#5a0e0a"/>
      <stop offset="60%" stop-color="#a01812"/>
      <stop offset="100%" stop-color="#d43a2a"/>
    </linearGradient>
    <linearGradient id="adrFill" x1="0" y1="0" x2="1" y2="0">
      <stop offset="0%" stop-color="#7a4d12"/>
      <stop offset="60%" stop-color="#c07f2a"/>
      <stop offset="100%" stop-color="#f0b95a"/>
    </linearGradient>
    <linearGradient id="morFill" x1="0" y1="0" x2="1" y2="0">
      <stop offset="0%" stop-color="#6e685a"/>
      <stop offset="60%" stop-color="#b0a892"/>
      <stop offset="100%" stop-color="#e4dcc6"/>
    </linearGradient>
    <linearGradient id="sheen" x1="0" y1="0" x2="1" y2="0">
      <stop offset="0%" stop-color="#ffffff" stop-opacity="0"/>
      <stop offset="50%" stop-color="#ffffff" stop-opacity="0.55"/>
      <stop offset="100%" stop-color="#ffffff" stop-opacity="0"/>
    </linearGradient>
    <filter id="glow" x="-40%" y="-40%" width="180%" height="180%">
      <feGaussianBlur stdDeviation="2" result="b"/>
      <feMerge><feMergeNode in="b"/><feMergeNode in="SourceGraphic"/></feMerge>
    </filter>
    <filter id="grunge">
      <feTurbulence type="fractalNoise" baseFrequency="0.9" numOctaves="2" stitchTiles="stitch"/>
      <feColorMatrix type="matrix" values="0 0 0 0 0  0 0 0 0 0  0 0 0 0 0  0 0 0 0.05 0"/>
    </filter>
    <clipPath id="clipHP"><rect x="220" y="150" width="267" height="16"/></clipPath>
    <clipPath id="clipADR"><rect x="220" y="188" width="226" height="16"/></clipPath>
    <clipPath id="clipMOR"><rect x="220" y="226" width="301" height="16"/></clipPath>
  </defs>

  <!-- panel background -->
  <rect x="4" y="4" width="812" height="552" rx="4" fill="url(#bg)"/>
  <rect x="4" y="4" width="812" height="552" rx="4" filter="url(#grunge)"/>

  <!-- frame: dirty bone with red inner line -->
  <rect x="14" y="14" width="792" height="532" rx="2" fill="none" stroke="url(#bone)" stroke-width="2" opacity="0.85"/>
  <rect x="22" y="22" width="776" height="516" rx="2" fill="none" stroke="#a01812" stroke-width="1" opacity="0.5"/>
  <!-- corner rivets -->
  <g fill="#8a8272">
    <circle cx="26" cy="26" r="2.5"/><circle cx="794" cy="26" r="2.5"/>
    <circle cx="26" cy="534" r="2.5"/><circle cx="794" cy="534" r="2.5"/>
  </g>

  <!-- claw marks, top right -->
  <g opacity="0.6">
    <path d="M636 26 L688 128 L681 130 L627 32 Z" fill="#7a1410"/>
    <path d="M664 22 L716 124 L709 126 L655 28 Z" fill="#a01812"/>
    <path d="M692 26 L740 118 L733 121 L683 31 Z" fill="#7a1410"/>
  </g>
  <!-- blood drips from middle slash -->
  <g fill="#a01812" opacity="0.55">
    <rect x="700" y="124" width="3" height="26" rx="1.5"/>
    <rect x="712" y="122" width="3" height="14" rx="1.5"/>
    <circle cx="701.5" cy="152" r="2.2"/>
  </g>

  <!-- title with crosshairs, flickering like a dying fluorescent light -->
  <g>
    <text x="410" y="66" text-anchor="middle" fill="url(#bone)" font-size="28" font-weight="bold" letter-spacing="9" filter="url(#glow)">SURVIVOR STATUS
      <animate attributeName="opacity" values="1;1;0.35;1;0.8;1;1" keyTimes="0;0.42;0.45;0.5;0.53;0.56;1" dur="4s" repeatCount="indefinite"/>
    </text>
  </g>
  <g stroke="#E8A33D" stroke-width="1.4" opacity="0.8">
    <circle cx="140" cy="60" r="9" fill="none"/>
    <line x1="140" y1="47" x2="140" y2="53"/><line x1="140" y1="67" x2="140" y2="73"/>
    <line x1="127" y1="60" x2="133" y2="60"/><line x1="147" y1="60" x2="153" y2="60"/>
    <circle cx="680" cy="60" r="9" fill="none"/>
    <line x1="680" y1="47" x2="680" y2="53"/><line x1="680" y1="67" x2="680" y2="73"/>
    <line x1="667" y1="60" x2="673" y2="60"/><line x1="687" y1="60" x2="693" y2="60"/>
  </g>
  <rect x="120" y="80" width="580" height="2" fill="#a01812" opacity="0.7"/>

  <!-- identity -->
  <text x="60" y="118" fill="#e8e2d2" font-size="22" letter-spacing="3">B100PER</text>
  <text x="60" y="140" fill="#8a8272" font-size="13" letter-spacing="2">IMMUNE · GAME DEVELOPER</text>
  <text x="760" y="118" text-anchor="end" fill="#E8A33D" font-size="15" letter-spacing="2">RANK: SURVIVOR</text>
  <text x="760" y="140" text-anchor="end" fill="#8a8272" font-size="13" letter-spacing="1">Zombies Killed  84,344</text>

  <!-- bars -->
  <g font-size="13" letter-spacing="2">
    <text x="60" y="163" fill="#d8d2c4">HEALTH</text>
    <text x="60" y="201" fill="#d8d2c4">ADRENALINE</text>
    <text x="60" y="239" fill="#d8d2c4">MORALE</text>
  </g>
  <g>
    <rect x="220" y="150" width="360" height="16" fill="#1c1813" stroke="#4a4238" stroke-width="1"/>
    <rect x="220" y="188" width="360" height="16" fill="#1c1813" stroke="#4a4238" stroke-width="1"/>
    <rect x="220" y="226" width="360" height="16" fill="#1c1813" stroke="#4a4238" stroke-width="1"/>

    <!-- HP: solid red + blinking temp-health tail (like pills in-game) -->
    <rect x="220" y="150" width="227" height="16" fill="url(#hpFill)"/>
    <rect x="447" y="150" width="40" height="16" fill="#E8A33D">
      <animate attributeName="opacity" values="1;0.25;1" dur="0.9s" repeatCount="indefinite"/>
    </rect>
    <rect x="220" y="188" width="226" height="16" fill="url(#adrFill)"/>
    <rect x="220" y="226" width="301" height="16" fill="url(#morFill)"/>

    <!-- HUD segment ticks -->
    <g stroke="#0e0c09" stroke-width="1" opacity="0.8">
      <line x1="310" y1="150" x2="310" y2="166"/><line x1="400" y1="150" x2="400" y2="166"/><line x1="490" y1="150" x2="490" y2="166"/>
      <line x1="310" y1="188" x2="310" y2="204"/><line x1="400" y1="188" x2="400" y2="204"/><line x1="490" y1="188" x2="490" y2="204"/>
      <line x1="310" y1="226" x2="310" y2="242"/><line x1="400" y1="226" x2="400" y2="242"/><line x1="490" y1="226" x2="490" y2="242"/>
    </g>

    <!-- moving sheen -->
    <g clip-path="url(#clipHP)"><rect x="-90" y="150" width="90" height="16" fill="url(#sheen)"><animate attributeName="x" from="130" to="500" dur="2.6s" repeatCount="indefinite"/></rect></g>
    <g clip-path="url(#clipADR)"><rect x="-90" y="188" width="90" height="16" fill="url(#sheen)"><animate attributeName="x" from="130" to="460" dur="2.9s" repeatCount="indefinite"/></rect></g>
    <g clip-path="url(#clipMOR)"><rect x="-90" y="226" width="90" height="16" fill="url(#sheen)"><animate attributeName="x" from="130" to="530" dur="2.4s" repeatCount="indefinite"/></rect></g>
  </g>
  <g font-size="12" fill="#c8c0ac" text-anchor="end" letter-spacing="1">
    <text x="580" y="163" dx="60">1,412 / 1,900</text>
    <text x="580" y="201" dx="60">220 / 350</text>
    <text x="580" y="239" dx="60">142 / 170</text>
  </g>

  <!-- skills divider -->
  <line x1="60" y1="272" x2="760" y2="272" stroke="#4a4238" stroke-width="1"/>
  <text x="60" y="298" fill="#E8A33D" font-size="13" letter-spacing="4">SURVIVOR SKILLS</text>

  <!-- skills: two columns -->
  <g font-size="15" letter-spacing="1">
    <g>
      <text x="60"  y="332" fill="#d8d2c4">Accuracy</text>      <text x="360" y="332" text-anchor="end" fill="#E8A33D">45</text>
      <text x="60"  y="364" fill="#d8d2c4">Reload Speed</text>  <text x="360" y="364" text-anchor="end" fill="#E8A33D">42</text>
      <text x="60"  y="396" fill="#d8d2c4">Endurance</text>     <text x="360" y="396" text-anchor="end" fill="#E8A33D">40</text>
      <text x="60"  y="428" fill="#d8d2c4">Strength</text>      <text x="360" y="428" text-anchor="end" fill="#E8A33D">31</text>
    </g>
    <g>
      <text x="440" y="332" fill="#d8d2c4">Agility</text>       <text x="760" y="332" text-anchor="end" fill="#E8A33D">44</text>
      <text x="440" y="364" fill="#d8d2c4">Wits</text>          <text x="760" y="364" text-anchor="end" fill="#E8A33D">44</text>
      <text x="440" y="396" fill="#d8d2c4">Morale</text>        <text x="760" y="396" text-anchor="end" fill="#E8A33D">30</text>
      <text x="440" y="428" fill="#d8d2c4">Luck</text>          <text x="760" y="428" text-anchor="end" fill="#E8A33D">27</text>
    </g>
  </g>
  <g font-size="11" fill="#6e6858" font-style="italic">
    <text x="170" y="332">pixel-perfect UI</text>
    <text x="200" y="364">build iteration</text>
    <text x="170" y="396">debugging marathons</text>
    <text x="160" y="428">legacy refactors</text>
    <text x="520" y="332">engine handling</text>
    <text x="500" y="364">systems &amp; logic</text>
    <text x="520" y="396">belief CI passes</text>
    <text x="500" y="428">obscure bug drops</text>
  </g>
  <g stroke="#26221c" stroke-width="1">
    <line x1="60" y1="344" x2="360" y2="344"/><line x1="60" y1="376" x2="360" y2="376"/><line x1="60" y1="408" x2="360" y2="408"/>
    <line x1="440" y1="344" x2="760" y2="344"/><line x1="440" y1="376" x2="760" y2="376"/><line x1="440" y1="408" x2="760" y2="408"/>
  </g>

  <!-- footer -->
  <line x1="120" y1="470" x2="700" y2="470" stroke="#4a4238" stroke-width="1"/>
  <text x="410" y="502" text-anchor="middle" fill="#8a8272" font-size="13" font-style="italic" letter-spacing="1">"There's always a lighted window, a warm meal, a friendly voice in the storm."</text>
  <rect x="396" y="514" width="28" height="8" fill="#a01812" opacity="0.8"/>
</svg>
